<svg width="18" height="18" viewBox="0 0 18 18" fill="none" xmlns="http://www.w3.org/2000/svg">
<g clipPath="url(#clip0_12604_219255)">
<path d="M11.9627 15.6654V14.1839C11.9627 13.3981 11.6505 12.6444 11.0948 12.0888C10.5392 11.5331 9.78554 11.2209 8.99971 11.2209H3.81453C3.0287 11.2209 2.27506 11.5331 1.71939 12.0888C1.16373 12.6444 0.851563 13.3981 0.851562 14.1839V15.6654M12.7034 8.25796L14.1849 9.73944L17.1479 6.77648M9.37008 5.29499C9.37008 6.93139 8.04352 8.25796 6.40712 8.25796C4.77072 8.25796 3.44416 6.93139 3.44416 5.29499C3.44416 3.65859 4.77072 2.33203 6.40712 2.33203C8.04352 2.33203 9.37008 3.65859 9.37008 5.29499Z" stroke="#0765FF" stroke-width="2" stroke-linecap="round" stroke-linejoin="round"/>
</g>
<defs>
<clipPath id="clip0_12604_219255">
<rect width="17.7778" height="17.7778" fill="white" transform="translate(0.109375 0.109375)"/>
</clipPath>
</defs>
</svg>
