<svg width="18" height="18" viewBox="0 0 18 18" fill="none" xmlns="http://www.w3.org/2000/svg">
<g clipPath="url(#clip0_12595_218861)">
<path d="M11.9602 15.6654V3.81351C11.9602 3.4206 11.8041 3.04378 11.5263 2.76595C11.2485 2.48812 10.8716 2.33203 10.4787 2.33203H7.51577C7.12286 2.33203 6.74604 2.48812 6.4682 2.76595C6.19037 3.04378 6.03429 3.4206 6.03429 3.81351V15.6654M3.07133 5.29499H14.9232C15.7414 5.29499 16.4047 5.95828 16.4047 6.77648V14.1839C16.4047 15.0021 15.7414 15.6654 14.9232 15.6654H3.07133C2.25313 15.6654 1.58984 15.0021 1.58984 14.1839V6.77648C1.58984 5.95828 2.25313 5.29499 3.07133 5.29499Z" stroke="#0765FF" stroke-width="2" stroke-linecap="round" stroke-linejoin="round"/>
</g>
<defs>
<clipPath id="clip0_12595_218861">
<rect width="17.7778" height="17.7778" fill="white" transform="translate(0.109375 0.109375)"/>
</clipPath>
</defs>
</svg>
