<svg width="18" height="18" viewBox="0 0 18 18" fill="none" xmlns="http://www.w3.org/2000/svg">
<g clipPath="url(#clip0_12545_218365)">
<path d="M15.8198 11.8787C15.3485 12.9932 14.6115 13.9752 13.673 14.739C12.7346 15.5027 11.6233 16.025 10.4364 16.2601C9.24948 16.4951 8.02305 16.4359 6.86432 16.0875C5.7056 15.7391 4.64986 15.1121 3.78942 14.2614C2.92897 13.4108 2.29 12.3623 1.92839 11.2076C1.56678 10.0529 1.49352 8.82724 1.71503 7.63772C1.93654 6.4482 2.44607 5.33105 3.19907 4.38394C3.95207 3.43683 4.92561 2.6886 6.03459 2.20466M16.405 8.99725C16.405 8.0245 16.2134 7.06127 15.8411 6.16256C15.4688 5.26385 14.9232 4.44726 14.2354 3.75942C13.5475 3.07158 12.7309 2.52596 11.8322 2.1537C10.9335 1.78144 9.9703 1.58984 8.99755 1.58984V8.99725H16.405Z" stroke="#0765FF" stroke-width="2" stroke-linecap="round" stroke-linejoin="round"/>
</g>
<defs>
<clipPath id="clip0_12545_218365">
<rect width="17.7778" height="17.7778" fill="white" transform="translate(0.109375 0.109375)"/>
</clipPath>
</defs>
</svg>
