<svg
  width="18"
  height="18"
  viewBox="0 0 18 18"
  fill="none"
  xmlns="http://www.w3.org/2000/svg"
>
<path
    d="M9.11853 8.16296C9.04445 8.15555 8.95557 8.15555 8.87408 8.16296C7.11112 8.1037 5.71112 6.65926 5.71112 4.88148C5.71112 3.06666 7.17779 1.59259 9.00001 1.59259C10.8148 1.59259 12.2889 3.06666 12.2889 4.88148C12.2815 6.65926 10.8815 8.1037 9.11853 8.16296Z"
    stroke="#0765FF"
    stroke-width="1.5"
    stroke-linecap="round"
    stroke-linejoin="round"
  />
<path
    d="M5.41482 10.8963C3.62223 12.0963 3.62223 14.0519 5.41482 15.2445C7.45185 16.6074 10.7926 16.6074 12.8296 15.2445C14.6222 14.0445 14.6222 12.0889 12.8296 10.8963C10.8 9.54075 7.45926 9.54075 5.41482 10.8963Z"
    stroke="#0765FF"
    stroke-width="1.5"
    stroke-linecap="round"
    stroke-linejoin="round"
  />
</svg>
